# xmcd
#
# Track frame offsets: 
#        150
#        12600
#        25312
#        34237
#        44250
#        55725
#        65175
#        75375
#        86625
#        96000
#        106462
#        117487
#        127275
#        138487
#
# Disc length: 1975 seconds
#
# Revision: 2
# Processed by: cddbd v1.5.2PL0 Copyright (c) Steve Scherf et al.
# Submitted via: ExactAudioCopy v0.99pb4
#
DISCID=c807b50e
DTITLE=Boozoo Chavis - The Lake Charles Atomic Bomb
DYEAR=1990
DGENRE=Blues
TTITLE0=Paper In My Shoe
TTITLE1=Forty One Days
TTITLE2=Hamburgers and Prpcorn
TTITLE3=Oh Yae Yae
TTITLE4=My Love Just for You
TTITLE5=Pallet on the Floor
TTITLE6=Oh Ho She's Gone
TTITLE7=Bye Bye Catin
TTITLE8=Brand New Mojo
TTITLE9=Telephone Won't Ring
TTITLE10=Tee Black
TTITLE11=Bottle Up and Go
TTITLE12=Comma Lemma Chapo Sha
TTITLE13=Lost the Paper in My Shoe
EXTD=
EXTT0=
EXTT1=
EXTT2=
EXTT3=
EXTT4=
EXTT5=
EXTT6=
EXTT7=
EXTT8=
EXTT9=
EXTT10=
EXTT11=
EXTT12=
EXTT13=
PLAYORDER=
